# xmcd
#
# Track frame offsets:
#	150
#	13019
#	27231
#	39977
#	51628
#	65004
#	75236
#	86655
#	98950
#	111631
#	123076
#	135724
#	150947
#	163501
#	178709
#	191500
#	204644
#	217695
#	228135
#	241198
#	253548
#	263269
#	276101
#
# Disc length: 3843 seconds
#
# Revision: 0
# Processed by: cddbd v1.5.1PL0 Copyright (c) Steve Scherf et al.
# Submitted via: dBpowerAMP V4.0
#
DISCID=2a0f0117
DTITLE=Griffin Brothers - Blues with a Beat
DYEAR=1952
DGENRE=R&B
TTITLE0=GRIFF'S BOOGIE 
TTITLE1=LITTLE RED ROOSTER 
TTITLE2=STUBBORN AS A MULE 
TTITLE3=HOTPEPPER
TTITLE4=I'LL GET A DEAL 
TTITLE5=TRA LA LA 
TTITLE6=SADIE GREEN 
TTITLE7=BLUES WITH A BEAT  
TTITLE8=STORMY NIGHT
TTITLE9=ONE STEADY BABY  
TTITLE10=THE CLOCK SONG 
TTITLE11=WEEP IN' AN D CRYIN'  
TTITLE12=THE TEASER 
TTITLE13=I'M GONNA JUMP IN THE RIVER
TTITLE14=ACE IN THE HOLE
TTITLE15=PRETTY BABY
TTITLE16=I WANNA GO BACK
TTITLE17=HOUSE NEAR THE RAILROAD TRACK
TTITLE18=DOUBLE FACED DEACON
TTITLE19=BLUES ALL ALONE
TTITLE20=COMIN'HOME
TTITLE21=IT'D SURPRISE YOU
TTITLE22=SHUFFLE BUG
EXTD=
EXTT0=
EXTT1=
EXTT2=
EXTT3=
EXTT4=
EXTT5=
EXTT6=
EXTT7=
EXTT8=
EXTT9=
EXTT10=
EXTT11=
EXTT12=
EXTT13=
EXTT14=
EXTT15=
EXTT16=
EXTT17=
EXTT18=
EXTT19=
EXTT20=
EXTT21=
EXTT22=
PLAYORDER=
